<svg id="Capa_1" enable-background="new 0 0 512 512" height="512" viewBox="0 0 512 512" width="512" xmlns="http://www.w3.org/2000/svg"><path d="m480.934 417.734c-8.284 0-15 6.716-15 15h-34.266c0-8.284-6.716-15-15-15s-15 6.716-15 15v64.266c0 8.284 6.716 15 15 15h64.266c8.284 0 15-6.716 15-15v-64.267c0-8.284-6.716-14.999-15-14.999z" fill="#0095ff"/><path d="m480.934 417.734c-8.284 0-15 6.716-15 15h-17.133v79.266h32.133c8.284 0 15-6.716 15-15v-64.267c0-8.284-6.716-14.999-15-14.999z" fill="#006eff"/><path d="m95.334 417.734c-8.284 0-15 6.716-15 15h-34.266c0-8.284-6.716-15-15-15s-15 6.716-15 15v64.266c0 8.284 6.716 15 15 15h64.266c8.284 0 15-6.716 15-15v-64.267c0-8.284-6.716-14.999-15-14.999z" fill="#0095ff"/><path d="m95.334 417.734c-8.284 0-15 6.716-15 15h-17.133v79.266h32.133c8.284 0 15-6.716 15-15v-64.267c0-8.284-6.716-14.999-15-14.999z" fill="#006eff"/><path d="m256 417.734c-8.284 0-15 6.716-15 15h-34.266c0-8.284-6.716-15-15-15s-15 6.716-15 15v64.266c0 8.284 6.716 15 15 15h64.266c8.284 0 15-6.716 15-15v-64.267c0-8.284-6.716-14.999-15-14.999z" fill="#0065a3"/><path d="m256.533 417.734c-8.284 0-15 6.716-15 15h-17.133v79.266h32.133c8.284 0 15-6.716 15-15v-64.267c0-8.284-6.716-14.999-15-14.999z" fill="#005183"/><path d="m507.607 84.727-80.332-80.333c-4.291-4.29-10.744-5.572-16.348-3.252-5.605 2.322-9.26 7.791-9.26 13.858v17.133h-346.5c-30.419 0-55.167 24.748-55.167 55.167v16.067c0 30.419 24.748 55.166 55.168 55.166h346.5v17.133c0 6.067 3.654 11.536 9.26 13.858 1.855.769 3.805 1.142 5.736 1.142 3.904 0 7.741-1.524 10.611-4.394l80.332-80.333c5.858-5.857 5.858-15.355 0-21.212z" fill="#ff5b5b"/><path d="m448.801 321.333c-34.848 0-63.199 28.352-63.199 63.2v48.2c0 8.284 6.716 15 15 15h96.398c8.284 0 15-6.716 15-15v-48.2c0-34.848-28.352-63.2-63.199-63.2z" fill="#0065a3"/><path d="m448.801 321.333v126.4h48.199c8.284 0 15-6.716 15-15v-48.2c0-34.848-28.351-63.2-63.199-63.2z" fill="#005183"/><path d="m63.201 321.333c-34.849 0-63.201 28.352-63.201 63.2v48.2c0 8.284 6.716 15 15 15h96.4c8.284 0 15-6.716 15-15v-48.2c0-34.848-28.351-63.2-63.199-63.2z" fill="#54e360"/><path d="m63.201 321.333v126.4h48.199c8.284 0 15-6.716 15-15v-48.2c0-34.848-28.351-63.2-63.199-63.2z" fill="#1fbf66"/><path d="m223.867 321.333c-34.848 0-63.199 28.352-63.199 63.2v48.2c0 8.284 6.716 15 15 15h96.4c8.284 0 15-6.716 15-15v-48.2c0-34.848-28.351-63.2-63.201-63.2z" fill="#ffd400"/><path d="m224.4 321.333v126.4h48.2c8.284 0 15-6.716 15-15v-48.2c0-34.848-28.352-63.2-63.2-63.2z" fill="#ff9f04"/><path d="m448.801 224.934c-34.848 0-63.199 28.351-63.199 63.199s28.352 63.2 63.199 63.2c34.848 0 63.199-28.352 63.199-63.2s-28.352-63.199-63.199-63.199z" fill="#ffcdbe"/><path d="m63.201 224.934c-34.849 0-63.201 28.35-63.201 63.199s28.352 63.2 63.201 63.2c34.848 0 63.199-28.352 63.199-63.2s-28.351-63.199-63.199-63.199z" fill="#fdd1a3"/><path d="m223.867 224.934c-34.848 0-63.199 28.351-63.199 63.199s28.351 63.2 63.199 63.2c34.85 0 63.201-28.352 63.201-63.2s-28.351-63.199-63.201-63.199z" fill="#a34f3e"/><path d="m126.4 288.133c0-34.849-28.351-63.199-63.199-63.199v126.399c34.848 0 63.199-28.351 63.199-63.2z" fill="#ffbb85"/><path d="m287.6 288.133c0-34.849-28.352-63.199-63.199-63.199v126.399c34.847 0 63.199-28.351 63.199-63.2z" fill="#873f2e"/><path d="m512 288.133c0-34.849-28.351-63.199-63.199-63.199v126.399c34.848 0 63.199-28.351 63.199-63.2z" fill="#ffbeaa"/><path d="m0 103.367c0 30.419 24.748 55.166 55.168 55.166h346.5v17.133c0 6.067 3.654 11.536 9.26 13.858 1.855.769 3.805 1.142 5.736 1.142 3.904 0 7.741-1.524 10.611-4.394l80.332-80.333c2.928-2.929 4.393-6.768 4.393-10.606h-512z" fill="#ff0059"/></svg>