<svg height="512" viewBox="0 0 512 512" width="512" xmlns="http://www.w3.org/2000/svg"><g id="Flat"><rect fill="#86b63b" height="304" rx="32" width="432" x="24" y="104"/><path d="m424 408h-368a32 32 0 0 1 -32-32v-16h432v16a32 32 0 0 1 -32 32z" fill="#dfdfdd"/><path d="m304 488h-128l16.8-56 7.2-24h80l7.2 24z" fill="#d8d8d6"/><path d="m152 480h176v16h-176z" fill="#dfdfdd"/><path d="m287.2 432h-94.4l7.2-24h80z" fill="#cececc"/><g fill="#c6dc3a"><path d="m56 320h368v16h-368z"/><path d="m96 256h48v72h-48z"/><path d="m176 200h48v128h-48z"/><path d="m256 144h48v184h-48z"/><path d="m384 328h-48v-256h-24l48-48 48 48h-24z"/></g><path d="m56 128h16v16h-16z" fill="#78a732"/><path d="m88 128h16v16h-16z" fill="#78a732"/><path d="m120 128h16v16h-16z" fill="#78a732"/><path d="m460.686 483.314-74.509-74.514 22.623-22.623 74.51 74.509a16 16 0 0 1 4.69 11.314 16 16 0 0 1 -16 16 16 16 0 0 1 -11.314-4.686z" fill="#2e4f78"/><circle cx="368" cy="368" fill="#375e8d" r="88"/><circle cx="368" cy="368" fill="#fcab1e" r="56"/><circle cx="368" cy="368" fill="#ffb431" r="40"/><path d="m352 368h-16a32.036 32.036 0 0 1 32-32v16a16.019 16.019 0 0 0 -16 16z" fill="#ffc261"/><path d="m456 64h-16a32.036 32.036 0 0 0 -32-32v-16a48.053 48.053 0 0 1 48 48z" fill="#eaeae8"/></g></svg>