<svg id="Capa_1" enable-background="new 0 0 495.517 495.517" height="512" viewBox="0 0 495.517 495.517" width="512" xmlns="http://www.w3.org/2000/svg"><g><path d="m472.856 213.076-4.278-69.46 7.949-11.963c-7.112-15.966-16.071-30.928-26.595-44.622l-22.894-6.884-23.704-23.396s9.385-7.647 9.394-7.648c-37.728-30.225-85.57-48.308-137.679-48.308-121.76 0-220.47 98.71-220.47 220.48 0 121.76 98.71 220.47 220.47 220.47 56.806 0 108.583-21.488 147.665-56.773-.058-.104-2.381-4.323-2.381-4.136 0 .189 7.387-8.902 7.387-8.902l10.064-1.946c13.949-15.258 25.786-32.479 35.037-51.208l-3.717-2.774 3.954-10.637 6.477-1.568c9.472-23.449 15.042-48.892 15.872-75.533z" fill="#c8effe"/><path d="m191.562 134.817c-1.628-.047-3.252-.071-4.871-.074-11.648-.017-18.862-12.827-12.712-22.718 34.65-55.731 93.464-94.868 161.803-102.753-19.292-5.523-39.659-8.476-60.734-8.476-121.76 0-220.47 98.71-220.47 220.48 0 86.645 49.993 161.603 122.698 197.641v-69.253c-12.713-19.234-22.486-40.58-28.695-63.393l87.811 152.092c12.551 2.22 25.468 3.382 38.656 3.382 10.134 0 20.102-.683 29.872-2.007 34.66-31.76 56.576-77.231 57.061-127.724.915-95.295-75.159-174.451-170.419-177.197z" fill="#99e6fc"/><path d="m396.584 285.906c9.137 0 16.54 7.403 16.54 16.54 0 4.564-1.849 8.695-4.843 11.689s-7.125 4.843-11.697 4.843h-140.263l-.115-.049c5.006-11.697 11.215-22.757 18.47-33.023z" fill="#57be92"/><path d="m256.207 318.929.115.049h105.441c.113-2.311.197-4.63.219-6.963.085-8.859-.498-17.578-1.697-26.109h-85.607c-7.257 10.266-13.465 21.325-18.471 33.023z" fill="#22b27f"/><path d="m332.642 150.064h-87.912c-11.161 0-20.21 9.048-20.21 20.21v.011c0 11.161 9.048 20.21 20.21 20.21h88.432c5.59 0 10.64-2.26 14.3-5.92 3.714-3.714 5.987-8.86 5.918-14.539-.134-11.156-9.581-19.972-20.738-19.972z" fill="#57be92"/><path d="m314.513 190.495c-15.852-16.947-35.009-30.784-56.457-40.43h-13.326c-11.161 0-20.21 9.048-20.21 20.209v.011c0 11.161 9.048 20.209 20.21 20.209h69.783z" fill="#22b27f"/><path d="m90.1 432.453-59.113 59.113c-4.206 4.206-11.026 4.206-15.232 0l-12.6-12.6c-4.206-4.206-4.206-11.026 0-15.232l59.373-59.373 60.467-60.92 30.088 26.549z" fill="#d7d0d6"/><circle cx="186.429" cy="310.304" fill="#f9f7f8" r="155.56"/><path d="m94.381 310.304c0-75.031 53.131-137.653 123.814-152.314-10.253-2.127-20.883-3.246-31.766-3.246-85.914 0-155.56 69.647-155.56 155.561s69.647 155.56 155.56 155.56c10.883 0 21.504-1.122 31.756-3.249-70.683-14.662-123.804-77.282-123.804-152.312z" fill="#efedef"/><g><circle cx="186.427" cy="310.304" fill="#62dbfb" r="111.29"/></g><path d="m125.188 403.233c-19.348-25.929-30.807-58.089-30.807-92.929s11.459-67.012 30.807-92.941c-30.152 19.911-50.051 54.107-50.051 92.941s19.899 73.018 50.051 92.929z" fill="#01d0fb"/><g><path d="m363.107 369.99c-4.142 0-7.5 3.357-7.5 7.5s3.358 7.5 7.5 7.5h59.581c5.269-4.756 10.309-9.761 15.098-15z" fill="#57be92"/><g id="XMLID_422_"><g fill="#57be92"><path d="m495.517 221.273c0 2.34-.04 4.68-.11 7h-74c-4.36 0-8.3-1.77-11.16-4.62-2.85-2.86-4.62-6.81-4.62-11.17 0-8.71 7.07-15.78 15.78-15.78h8.02c4.5 0 8.57-1.82 11.52-4.77s4.77-7.02 4.77-11.52c0-8.99-7.29-16.28-16.29-16.28h-23.09c-4.49 0-8.55-1.82-11.48-4.76-2.94-2.94-4.76-7-4.76-11.48 0-8.97 7.27-16.24 16.24-16.24h70.19c12.21 27.38 18.99 57.71 18.99 89.62z"/><path d="m449.931 87.031h-140.1c-5.24 0-9.98-2.12-13.41-5.55-3.43-3.44-5.55-8.18-5.55-13.42 0-10.47 8.49-18.96 18.96-18.96h102.9c13.87 11.09 26.37 23.84 37.2 37.93z"/><path d="m138.857 94.224c11.17 0 20.22 9.05 20.22 20.22 0 5.58-2.26 10.63-5.92 14.29s-8.71 5.92-14.3 5.92l-66.589-.054c6.12-14.3 13.705-27.827 22.575-40.377h44.014z"/></g></g><g><path d="m381.645 251.709h-14.775c-4.142 0-7.5-3.357-7.5-7.5s3.358-7.5 7.5-7.5h14.774c4.142 0 7.5 3.357 7.5 7.5s-3.357 7.5-7.499 7.5z" fill="#57be92"/></g><path d="m446.652 303.804c-4.142 0-7.5 3.357-7.5 7.5s3.358 7.5 7.5 7.5h26.158c2.421-4.9 4.665-9.905 6.725-15.003z" fill="#57be92"/><path d="m206.041 61.624c4.142 0 7.5-3.357 7.5-7.5s-3.358-7.5-7.5-7.5l-65.561-.007c-6.091 4.7-11.923 9.707-17.485 15.007z" fill="#57be92"/><g><path d="m254.585 61.624h-9.287c-4.142 0-7.5-3.357-7.5-7.5s3.358-7.5 7.5-7.5h9.287c4.142 0 7.5 3.357 7.5 7.5s-3.358 7.5-7.5 7.5z" fill="#57be92"/></g></g></g></svg>