<svg id="Capa_1" enable-background="new 0 0 512 512" height="512" viewBox="0 0 512 512" width="512" xmlns="http://www.w3.org/2000/svg"><g><g><g><path d="m413.699 419.201 40.82-7.36c8.469-1.527 14.097-9.631 12.57-18.1l-.005-.027c-1.527-8.469-9.631-14.097-18.1-12.57l-40.82 7.36z" fill="#ffd064"/></g><g><path d="m448.748 481.318-9.77-16.922c-6.409-11.1-9.783-23.692-9.783-36.51v-63.948c0-30.149-24.44-54.589-54.589-54.589-30.149 0-54.589 24.44-54.589 54.589v63.948c0 12.818-3.374 25.409-9.783 36.51l-9.77 16.922c-2.697 4.671.674 10.509 6.068 10.509h28.755c5.37 0 10.319 2.68 13.483 7.019 5.811 7.971 15.216 13.153 25.836 13.153 10.62 0 20.025-5.182 25.836-13.153 3.163-4.34 8.112-7.019 13.483-7.019h28.755c5.394 0 8.765-5.838 6.068-10.509z" fill="#ffe07d"/></g><g><g><path d="m448.748 481.318-9.77-16.922c-6.409-11.1-9.783-23.692-9.783-36.51v-63.948c0-30.149-24.44-54.589-54.589-54.589-4.35 0-8.576.524-12.632 1.485 24.055 5.702 41.957 27.305 41.957 53.104v63.948c0 12.818 3.374 25.409 9.783 36.51l9.77 16.922c2.697 4.671-.674 10.509-6.068 10.509h25.263c5.395 0 8.766-5.838 6.069-10.509z" fill="#ffd064"/></g></g><g><path d="m413.699 419.201 40.82-7.36c8.469-1.527 14.097-9.631 12.57-18.1l-.005-.027c-1.527-8.469-9.631-14.097-18.1-12.57l-40.82 7.36z" fill="#ffd064"/></g><g><path d="m335.513 419.201-40.82-7.36c-8.469-1.527-14.097-9.631-12.57-18.1l.005-.027c1.527-8.469 9.631-14.097 18.1-12.57l40.82 7.36z" fill="#ffe07d"/></g></g><g><g><path d="m218.948 47.277h11.617c1.658 0 3.003-1.344 3.003-3.003v-41.271c0-1.658-1.344-3.003-3.003-3.003h-11.616c-39.969 0-72.37 32.401-72.37 72.37v10.534c0 1.106-.896 2.002-2.002 2.002h-20.223c-1.658 0-3.003 1.344-3.003 3.003v41.272c0 1.658 1.344 3.003 3.003 3.003h20.223c1.106 0 2.002.896 2.002 2.002v81.374c0 1.658 1.344 3.003 3.003 3.003h41.272c1.658 0 3.003-1.344 3.003-3.003v-81.374c0-1.106.896-2.002 2.002-2.002h20.223c1.658 0 3.003-1.344 3.003-3.003v-41.273c0-1.658-1.344-3.003-3.003-3.003h-20.223c-1.106 0-2.002-.896-2.002-2.002v-10.534c-.001-13.858 11.233-25.092 25.091-25.092z" fill="#5766cb"/></g><g><g><path d="m179.218 134.184v81.374c0 1.658-1.344 3.003-3.003 3.003h14.638c1.658 0 3.003-1.344 3.003-3.003v-81.374c0-1.106.896-2.002 2.002-2.002h-14.638c-1.105 0-2.002.896-2.002 2.002z" fill="#3d4fc3"/></g><g><path d="m216.081 84.905h-14.638c1.658 0 3.003 1.344 3.003 3.003v41.272c0 1.658-1.344 3.003-3.003 3.003h14.638c1.658 0 3.003-1.344 3.003-3.003v-41.272c0-1.659-1.344-3.003-3.003-3.003z" fill="#3d4fc3"/></g><g><path d="m230.565 0h-11.616c-.81 0-1.612.035-2.416.061 1.368.28 2.397 1.491 2.397 2.942v41.272c0 1.658-1.344 3.003-3.003 3.003h-11.617c-13.858 0-25.092 11.234-25.092 25.092v10.534c0 1.106.896 2.002 2.002 2.002h14.638c-1.106 0-2.002-.896-2.002-2.002v-10.535c0-13.858 11.234-25.092 25.092-25.092h11.617c1.658 0 3.003-1.344 3.003-3.003v-41.271c0-1.659-1.344-3.003-3.003-3.003z" fill="#3d4fc3"/></g></g></g><g><g><path d="m406.373 267.899h-114.445c-19.028 0-34.453-15.425-34.453-34.454v-114.445c0-19.028 15.425-34.454 34.453-34.454h114.445c19.028 0 34.454 15.425 34.454 34.454v114.445c0 19.028-15.426 34.454-34.454 34.454z" fill="#eaaadd"/></g><g><path d="m417.999 86.572c1.308 3.642 2.025 7.565 2.025 11.657v114.383c0 19.045-15.439 34.484-34.484 34.484h-114.384c-4.092 0-8.015-.717-11.657-2.025 4.78 13.308 17.506 22.828 32.459 22.828h114.383c19.045 0 34.484-15.439 34.484-34.484v-114.384c.002-14.953-9.518-27.68-22.826-32.459z" fill="#e490d0"/></g><g><path d="m349.151 220.157c-24.226 0-43.935-19.709-43.935-43.934 0-24.226 19.709-43.935 43.935-43.935s43.935 19.709 43.935 43.935c-.001 24.225-19.71 43.934-43.935 43.934zm0-72.855c-15.947 0-28.921 12.974-28.921 28.921s12.974 28.92 28.921 28.92 28.921-12.973 28.921-28.92-12.974-28.921-28.921-28.921z" fill="#ecf4ff"/></g><g><circle cx="400.671" cy="124.703" fill="#ecf4ff" r="10.61"/></g></g><g><path d="m230.604 368.505c-3.256 0-6.469-.183-9.635-.525-1.237-.134-1.77-1.626-.903-2.518.007-.007.014-.015.021-.022 27.619-28.446 32.632-70.462 15.402-103.853-1.064-2.061-3.956-2.233-5.203-.277-3.221 5.052-6.993 9.858-11.33 14.325-14.82 15.265-33.74 24.126-53.328 26.563-.58.072-1.092-.374-1.123-.958-1.368-25.802-22.708-46.306-48.852-46.306-18.85 0-35.203 10.661-43.378 26.279-.348.665-1.025 1.09-1.776 1.09h-23.395c-1.487 0-2.46 1.559-1.796 2.89 1.567 3.139 4.789 8.255 10.567 12.366.624.444.538 1.395-.156 1.718l-9.899 4.602c-1.354.629-1.568 2.456-.4 3.386 3.5 2.786 10.779 7.34 20.933 7.301.915-.004 1.691.646 1.919 1.533 3.635 14.127 13.416 25.78 26.327 31.945.804.384 1.401 1.088 1.633 1.948 10.333 38.258 45.28 66.409 86.805 66.409 34.635 0 64.692-19.585 79.709-48.283 1.261-2.41-1.066-5.093-3.646-4.231-8.954 2.994-18.534 4.618-28.496 4.618z" fill="#b1e4f9"/></g><g><g><path d="m232.357 368.483c-16.068 24.455-43.741 40.603-75.189 40.603-3.827 0-7.596-.245-11.297-.709 11.328 5.15 23.911 8.025 37.166 8.025 34.633 0 64.688-19.583 79.707-48.278 1.245-2.38-1.033-5.111-3.58-4.258-8.446 2.828-17.451 4.437-26.807 4.617z" fill="#90d8f9"/></g></g></g></svg>