<svg id="Capa_1" enable-background="new 0 0 512 512" height="512" viewBox="0 0 512 512" width="512" xmlns="http://www.w3.org/2000/svg"><g><g><g><g><path d="m4.977 107.353-4.977 8.964v259.162c0 17.102 13.864 30.966 30.966 30.966h450.068c17.102 0 30.966-13.864 30.966-30.966v-259.162l-4.977-8.965h-502.046z" fill="#d8eafb"/></g><g><path d="m461.295 107.353v217.421c0 17.102-13.864 30.966-30.966 30.966h-430.329v19.739c0 17.102 13.864 30.966 30.966 30.966h450.068c17.102 0 30.966-13.864 30.966-30.966v-259.162l-4.977-8.965h-45.728z" fill="#b3d8fb"/></g><g><path d="m481.034 30.86h-450.068c-17.102 0-30.966 13.864-30.966 30.966v54.491h512v-54.491c0-17.102-13.864-30.966-30.966-30.966z" fill="#1690fb"/></g><g><path d="m481.034 30.86h-19.739v85.457h50.705v-54.491c0-17.102-13.864-30.966-30.966-30.966z" fill="#0571f9"/></g><g><g><circle cx="56.09" cy="73.589" fill="#b3d8fb" r="13.892"/></g><g><circle cx="98.826" cy="73.589" fill="#b3d8fb" r="13.892"/></g><g><circle cx="141.563" cy="73.589" fill="#b3d8fb" r="13.892"/></g></g></g><g><path d="m208.399 430.775v-13.379c0-1.447 1.173-2.621 2.621-2.621h18.672c1.447 0 2.621-1.173 2.621-2.621v-25.406c0-1.447-1.173-2.621-2.621-2.621h-18.672c-1.447 0-2.621-1.173-2.621-2.621v-17.753c0-1.447-1.173-2.621-2.621-2.621h-42.048c-1.447 0-2.621 1.173-2.621 2.621v95.323c0 1.447 1.173 2.621 2.621 2.621h65.962c1.447 0 2.621-1.173 2.621-2.621v-23.061c0-1.447-1.173-2.621-2.621-2.621h-18.672c-1.448.002-2.621-1.171-2.621-2.619z" fill="#f9c301"/></g><g><g><path d="m229.692 433.396h-13.43v11.836c0 1.447-1.173 2.621-2.621 2.621h-52.532v11.225c0 1.447 1.173 2.621 2.621 2.621h65.962c1.447 0 2.621-1.173 2.621-2.621v-23.061c-.001-1.448-1.174-2.621-2.621-2.621z" fill="#d4a806"/></g><g><path d="m229.692 384.128h-13.43v30.647h13.43c1.447 0 2.621-1.173 2.621-2.621v-25.406c-.001-1.446-1.174-2.62-2.621-2.62z" fill="#d4a806"/></g></g><g><path d="m223.059 234.783c0-44.552-36.644-80.544-81.436-79.483-43.499 1.031-78.388 37.521-77.561 81.024.681 35.826 25.069 65.831 58.123 75.036v159.825c0 5.497 4.456 9.954 9.954 9.954h22.829c5.497 0 9.954-4.456 9.954-9.954v-159.824c33.527-9.337 58.137-40.073 58.137-76.578zm-79.506 32.475c-17.935 0-32.474-14.539-32.474-32.474s14.539-32.474 32.474-32.474 32.474 14.539 32.474 32.474-14.539 32.474-32.474 32.474z" fill="#f9c301"/></g><g><g><path d="m189.781 170.118c9.331 13.029 14.841 28.98 14.841 46.228 0 31.626-18.472 58.923-45.212 71.725-7.909 3.787-12.926 11.792-12.926 20.561v138.804c0 8.431-6.835 15.266-15.266 15.266h-9.033v8.483c0 5.497 4.456 9.954 9.954 9.954h22.829c5.497 0 9.954-4.456 9.954-9.954v-159.824c33.527-9.337 58.138-40.073 58.138-76.577-.001-26.663-13.138-50.242-33.279-64.666z" fill="#d4a806"/></g></g></g><g><g><path d="m302.665 298.785c-.014 0-.028 0-.043 0-3.172-.018-5.986-2.039-7.017-5.039l-39.198-114.064c-1.34-3.899.735-8.146 4.634-9.486 3.901-1.339 8.147.734 9.486 4.634l32.266 93.893 33.846-94.972c1.384-3.884 5.656-5.908 9.538-4.526 3.884 1.384 5.91 5.654 4.526 9.538l-41.006 115.064c-1.059 2.974-3.876 4.958-7.032 4.958z" fill="#0571f9"/></g><g><path d="m382.924 298.785c-.011 0-.02 0-.031 0-3.182-.014-6.007-2.043-7.035-5.055l-39.252-115.064c-1.331-3.902.753-8.144 4.655-9.476 3.901-1.333 8.144.751 9.477 4.655l32.282 94.632 32.888-93.827c1.364-3.891 5.626-5.942 9.514-4.575 3.891 1.364 5.94 5.623 4.576 9.514l-40.029 114.198c-1.05 2.996-3.875 4.998-7.045 4.998z" fill="#0571f9"/></g></g></g></svg>